<svg width="137"
     height="48"
     viewBox="0 0 137 48"
     fill="none"
     xmlns="http://www.w3.org/2000/svg">
  <g clip-path="url(#clip0_310_94)">
    <path fill-rule="evenodd"
          clip-rule="evenodd"
          d="M23.3285 0.601941C35.5092 4.31643 46.3635 16.2666 46.3635 24.0988C46.3635 31.9311 36.4197 44.6426 23.3285 47.5958C10.915 50.3961 0.293396 37.0671 0.293396 24.0988C0.293396 11.1303 11.1186 -3.12179 23.3285 0.601941Z"
          fill="#3F4FA0"/>
    <path fill-rule="evenodd"
          clip-rule="evenodd"
          d="M68.2313 20.8307C69.4438 20.8307 70.4129 21.1958 71.1387 21.926C71.8648 22.6562 72.2276 23.6342 72.2276 24.8599V30.8842H69.5001V25.036C69.5001 24.4492 69.3449 23.9928 69.0349 23.6668C68.7248 23.3408 68.2876 23.1778 67.7238 23.1778C67.1038 23.1778 66.6207 23.3669 66.2755 23.745C65.93 24.1232 65.7573 24.6708 65.7573 25.388V30.8842H63.0298V25.036C63.0298 24.4492 62.8746 23.9928 62.5646 23.6668C62.2546 23.3408 61.8174 23.1778 61.2536 23.1778C60.6475 23.1778 60.1647 23.3702 59.8052 23.7548C59.4458 24.1395 59.2662 24.6839 59.2662 25.388V30.8842H56.5384V21.1045H59.2662V22.1411C59.9003 21.2675 60.8801 20.8307 62.2051 20.8307C63.5162 20.8307 64.4746 21.3001 65.0809 22.239C65.7716 21.3001 66.8217 20.8307 68.2313 20.8307Z"
          fill="#3F4FA0"/>
    <path fill-rule="evenodd"
          clip-rule="evenodd"
          d="M83.9274 27.017H76.5612C76.8871 28.2427 77.8053 28.8555 79.3164 28.8555C80.2802 28.8555 81.0096 28.5296 81.5046 27.8776L83.5366 29.0512C82.5729 30.4464 81.1528 31.144 79.2771 31.144C77.662 31.144 76.3659 30.655 75.389 29.6771C74.4121 28.6991 73.9234 27.4669 73.9234 25.9803C73.9234 24.5199 74.4056 23.2942 75.3693 22.3032C76.3203 21.3122 77.5578 20.8167 79.0817 20.8167C80.5277 20.8167 81.7065 21.3122 82.6184 22.3032C83.5563 23.2942 84.0251 24.5199 84.0251 25.9803C84.0251 26.2542 83.9926 26.5997 83.9274 27.017ZM76.5222 25.061H81.5046C81.3613 24.4221 81.0715 23.9331 80.6352 23.5941C80.1989 23.2551 79.681 23.0855 79.0817 23.0855C78.4045 23.0855 77.8443 23.2583 77.4014 23.6039C76.9585 23.9494 76.6655 24.4351 76.5222 25.061Z"
          fill="#3F4FA0"/>
    <path fill-rule="evenodd"
          clip-rule="evenodd"
          d="M93.6824 22.2109V17.7412H96.2029V30.8366H93.6824V29.6826C92.9399 30.6345 91.885 31.1105 90.5171 31.1105C89.2016 31.1105 88.0746 30.615 87.1368 29.624C86.212 28.6199 85.7495 27.3942 85.7495 25.9468C85.7495 24.5124 86.212 23.2932 87.1368 22.2892C88.0746 21.2851 89.2016 20.7831 90.5171 20.7831C91.885 20.7831 92.9399 21.259 93.6824 22.2109ZM89.0322 27.9418C89.5662 28.4504 90.2175 28.7047 90.9862 28.7047C91.7677 28.7047 92.4125 28.4504 92.9206 27.9418C93.4284 27.4202 93.6824 26.7552 93.6824 25.9468C93.6824 25.1383 93.4284 24.4798 92.9206 23.9713C92.4125 23.4497 91.7677 23.1889 90.9862 23.1889C90.2047 23.1889 89.5533 23.4497 89.0322 23.9713C88.5241 24.4798 88.2703 25.1383 88.2703 25.9468C88.2703 26.7552 88.5241 27.4202 89.0322 27.9418Z"
          fill="#3F4FA0"/>
    <path fill-rule="evenodd"
          clip-rule="evenodd"
          d="M105.933 22.2109V21.0569H108.454V30.8366H105.933V29.6826C105.178 30.6345 104.116 31.1104 102.748 31.1104C101.446 31.1104 100.326 30.6149 99.3878 29.6239C98.4631 28.6199 98.0005 27.3941 98.0005 25.9467C98.0005 24.5124 98.4631 23.2932 99.3878 22.2891C100.326 21.2851 101.446 20.7831 102.748 20.7831C104.116 20.7831 105.178 21.259 105.933 22.2109ZM101.283 27.9418C101.791 28.4503 102.436 28.7046 103.218 28.7046C103.999 28.7046 104.644 28.4503 105.152 27.9418C105.673 27.4202 105.933 26.7552 105.933 25.9467C105.933 25.1383 105.673 24.4798 105.152 23.9713C104.644 23.4497 103.999 23.1889 103.218 23.1889C102.436 23.1889 101.791 23.4497 101.283 23.9713C100.775 24.4798 100.521 25.1383 100.521 25.9467C100.521 26.7552 100.775 27.4202 101.283 27.9418Z"
          fill="#3F4FA0"/>
    <path fill-rule="evenodd"
          clip-rule="evenodd"
          d="M116.328 21.0569V23.4823H114.12V27.5506C114.12 27.8897 114.205 28.1374 114.374 28.2939C114.544 28.4504 114.791 28.5384 115.117 28.558C115.442 28.5775 115.846 28.5742 116.328 28.5482V30.8366C114.622 31.0322 113.407 30.8725 112.684 30.3574C111.961 29.8424 111.6 28.9067 111.6 27.5506V23.4823H109.9V21.0569H111.6V17.5906L114.12 16.828V21.0569H116.328Z"
          fill="#3F4FA0"/>
    <path fill-rule="evenodd"
          clip-rule="evenodd"
          d="M124.71 26.3379V21.0569H127.231V30.8366H124.71V29.7413C124.111 30.6541 123.141 31.1104 121.799 31.1104C120.731 31.1104 119.845 30.7518 119.142 30.0347C118.451 29.3044 118.106 28.3134 118.106 27.0616V21.0569H120.627V26.7487C120.627 27.3876 120.799 27.8831 121.145 28.2352C121.49 28.5873 121.962 28.7633 122.561 28.7633C123.226 28.7633 123.75 28.5579 124.134 28.1472C124.518 27.7364 124.71 27.1334 124.71 26.3379Z"
          fill="#3F4FA0"/>
    <path fill-rule="evenodd"
          clip-rule="evenodd"
          d="M131.784 23.8343C131.784 24.2516 132.376 24.6102 133.562 24.9101C133.979 25.0014 134.356 25.109 134.695 25.2328C135.034 25.3567 135.376 25.5328 135.721 25.7609C136.066 25.9891 136.336 26.2923 136.531 26.6704C136.727 27.0486 136.825 27.4854 136.825 27.9809C136.825 28.985 136.447 29.7608 135.691 30.3085C134.936 30.8431 134.004 31.1104 132.897 31.1104C130.891 31.1104 129.524 30.3346 128.794 28.7829L130.982 27.5506C131.282 28.3982 131.92 28.822 132.897 28.822C133.796 28.822 134.245 28.5416 134.245 27.9809C134.245 27.5637 133.653 27.2051 132.467 26.9052C132.024 26.7878 131.647 26.6704 131.334 26.5531C131.021 26.4358 130.683 26.263 130.318 26.0348C129.953 25.8066 129.677 25.5132 129.488 25.1546C129.299 24.796 129.204 24.3755 129.204 23.893C129.204 22.9281 129.556 22.1718 130.26 21.6241C130.976 21.0634 131.862 20.7831 132.917 20.7831C133.711 20.7831 134.434 20.9624 135.086 21.3209C135.737 21.6795 136.252 22.1914 136.629 22.8564L134.48 24.0299C134.167 23.3649 133.646 23.0324 132.917 23.0324C132.591 23.0324 132.321 23.1074 132.106 23.2573C131.891 23.4073 131.784 23.5996 131.784 23.8343Z"
          fill="#3F4FA0"/>
  </g>
  <defs>
    <clipPath id="clip0_310_94">
      <rect width="137"
            height="48"
            fill="white"/>
    </clipPath>
  </defs>
</svg>
